<!--?xml version="1.0" standalone="no"?-->
              <svg id="sw-js-blob-svg" viewBox="0 0 100 100" xmlns="http://www.w3.org/2000/svg" version="1.1">
                    <defs> 
                        <linearGradient id="sw-gradient" x1="0" x2="1" y1="1" y2="0">
                            <stop id="stop1" stop-color="rgba(248, 117, 55, 1)" offset="0%"></stop>
                            <stop id="stop2" stop-color="rgba(251, 168, 31, 1)" offset="100%"></stop>
                        </linearGradient>
                    </defs>
                <path fill="url(#sw-gradient)" d="M21.8,-31.9C29.2,-29.1,36.8,-24.7,39.4,-18.2C42,-11.7,39.5,-3.2,37.1,4.5C34.6,12.2,32.2,19,28.4,26C24.5,33.1,19.3,40.4,12,43.8C4.8,47.1,-4.4,46.6,-12.1,43.3C-19.8,40.1,-26.1,34,-30.8,27.4C-35.6,20.7,-38.9,13.4,-41,5.3C-43,-2.8,-43.9,-11.6,-39.4,-16.5C-34.9,-21.5,-25,-22.6,-17.6,-25.4C-10.1,-28.1,-5.1,-32.7,1.1,-34.3C7.2,-35.9,14.4,-34.7,21.8,-31.9Z" width="100%" height="100%" transform="translate(50 50)" stroke-width="0" style="transition: all 0.3s ease 0s;"></path>
              </svg>