<!--?xml version="1.0" standalone="no"?-->
              <svg id="sw-js-blob-svg" viewBox="0 0 100 100" xmlns="http://www.w3.org/2000/svg" version="1.1">
                    <defs> 
                        <linearGradient id="sw-gradient" x1="0" x2="1" y1="1" y2="0">
                            <stop id="stop1" stop-color="rgba(248, 117, 55, 1)" offset="0%"></stop>
                            <stop id="stop2" stop-color="rgba(251, 168, 31, 1)" offset="100%"></stop>
                        </linearGradient>
                    </defs>
                <path fill="url(#sw-gradient)" d="M20.6,-25.2C26.9,-19.2,32.4,-13,33.6,-6C34.8,1,31.6,8.7,27.5,15.9C23.4,23,18.3,29.6,11.4,32.8C4.5,36,-4.2,35.8,-12.6,33.3C-20.9,30.8,-28.8,26,-33.5,18.9C-38.2,11.7,-39.7,2.2,-37.2,-5.6C-34.7,-13.5,-28.3,-19.7,-21.4,-25.6C-14.5,-31.5,-7.3,-37,-0.1,-37C7.1,-36.9,14.3,-31.2,20.6,-25.2Z" width="100%" height="100%" transform="translate(50 50)" stroke-width="0" style="transition: all 0.3s ease 0s;"></path>
              </svg>