<?xml version="1.0" standalone="no"?>
<!DOCTYPE svg PUBLIC "-//W3C//DTD SVG 20010904//EN"
 "http://www.w3.org/TR/2001/REC-SVG-20010904/DTD/svg10.dtd">
<svg version="1.0" xmlns="http://www.w3.org/2000/svg"
 width="132.000000pt" height="132.000000pt" viewBox="0 0 132.000000 132.000000"
 preserveAspectRatio="xMidYMid meet">
<metadata>
Created by potrace 1.14, written by Peter Selinger 2001-2017
</metadata>
<g transform="translate(0.000000,132.000000) scale(0.100000,-0.100000)"
fill="#000000" stroke="none">
<path d="M648 1225 c-2 -3 -40 -7 -84 -9 -106 -5 -191 -28 -302 -82 -75 -37
-101 -56 -134 -97 -23 -29 -49 -70 -59 -92 -20 -45 -57 -233 -61 -310 -3 -49
-2 -50 37 -68 55 -27 111 -33 132 -16 9 8 27 38 39 66 33 75 55 93 109 93 36
0 52 -6 71 -25 24 -24 25 -28 11 -48 -11 -17 -26 -23 -65 -25 l-51 -3 -41 -74
c-50 -92 -74 -110 -135 -102 -25 4 -56 9 -70 13 l-25 6 15 -42 c47 -134 178
-256 323 -300 201 -62 619 32 789 177 47 41 113 120 113 137 0 3 -22 6 -50 6
-61 0 -81 17 -117 98 -14 32 -30 61 -36 65 -7 4 -35 5 -63 2 -58 -7 -80 8 -70
49 8 31 55 50 111 44 66 -8 94 -31 128 -109 33 -75 43 -80 106 -58 39 14 46
37 45 159 -2 169 -59 286 -191 391 -107 85 -147 101 -271 109 -83 5 -108 10
-132 28 -27 21 -60 28 -72 17z m-49 -125 c32 -16 69 -140 43 -140 -34 0 -82
73 -82 125 0 27 10 31 39 15z m199 -147 c13 -8 25 -20 27 -26 23 -66 25 -68
43 -58 15 8 25 4 50 -22 18 -18 32 -36 32 -40 0 -11 -57 -37 -81 -37 -29 0
-85 -58 -97 -102 -23 -83 28 -191 106 -223 27 -12 32 -19 32 -47 0 -19 5 -39
11 -45 9 -9 -5 -17 -52 -31 -55 -18 -66 -18 -75 -6 -6 8 -28 14 -50 14 -22 0
-57 9 -79 20 -22 11 -43 20 -47 20 -4 0 -17 -22 -29 -50 -16 -36 -27 -50 -42
-50 -32 0 -174 159 -164 184 3 7 21 16 41 20 54 10 93 48 105 104 17 82 -4
134 -96 234 -24 26 -43 52 -43 58 0 16 57 47 101 54 27 4 56 0 97 -15 86 -31
93 -30 108 16 21 59 44 65 102 28z"/>
</g>
</svg>
